# xmcd
#
# Track frame offsets: 
#        150
#        19317
#        47885
#
# Disc length: 3060 seconds
#
# Revision: 0
# Processed by: cddbd v1.4PL0 Copyright (c) Steve Scherf et al.
# Submitted via: ExactAudioCopy v0.90b2
#
DISCID=210bf203
DTITLE=Ben Harper - Burn To Shine - CD Extra
DYEAR=1900
DGENRE=Blues
TTITLE0=Waiting On An Angel (Live)
TTITLE1=Another Lonely Day (Live)
TTITLE2=Video
EXTD=
EXTT0=
EXTT1=
EXTT2=
PLAYORDER=
